<svg height="512pt" viewBox="0 -96 512 512" width="512pt" xmlns="http://www.w3.org/2000/svg"><path d="m157.589844 190.285156c42.183594 0 76.5-34.316406 76.5-76.5s-34.316406-76.5-76.5-76.5-76.5 34.316406-76.5 76.5 34.316406 76.5 76.5 76.5zm0-138c33.910156 0 61.5 27.589844 61.5 61.5 0 33.914063-27.589844 61.5-61.5 61.5-33.914063 0-61.5-27.585937-61.5-61.5 0-33.910156 27.585937-61.5 61.5-61.5zm0 0"/><path d="m365.410156 178.160156c0-23.066406-18.765625-41.832031-41.832031-41.832031-23.0625 0-41.832031 18.765625-41.832031 41.832031 0 23.0625 18.769531 41.832032 41.832031 41.832032 23.066406 0 41.832031-18.769532 41.832031-41.832032zm-68.664062 0c0-14.796875 12.039062-26.832031 26.832031-26.832031 14.796875 0 26.832031 12.035156 26.832031 26.832031 0 14.792969-12.035156 26.832032-26.832031 26.832032-14.792969 0-26.832031-12.039063-26.832031-26.832032zm0 0"/><path d="m464.664062 178.160156c0-23.066406-18.765624-41.832031-41.832031-41.832031-23.066406 0-41.832031 18.765625-41.832031 41.832031 0 23.0625 18.765625 41.832032 41.832031 41.832032 23.066407 0 41.832031-18.769532 41.832031-41.832032zm-68.664062 0c0-14.796875 12.035156-26.832031 26.832031-26.832031s26.832031 12.035156 26.832031 26.832031c0 14.792969-12.035156 26.832032-26.832031 26.832032s-26.832031-12.039063-26.832031-26.832032zm0 0"/><path d="m483.695312 75.207031h-49.871093c-3.542969-19.5-20.648438-34.335937-41.15625-34.335937h-18.835938c-20.507812 0-37.613281 14.835937-41.15625 34.335937h-68.066406c-21.386719-59.136719-86.816406-89.8125-145.855469-68.367187-3.894531 1.414062-5.902344 5.714844-4.488281 9.609375 1.414063 3.890625 5.714844 5.898437 9.609375 4.488281 62.507812-22.703125 129.507812 22.042969 132.371094 88.476562 2.464844 56.546876-42.875 103.125-98.65625 103.125-54.707032 0-99.128906-44.699218-98.75-99.441406.195312-31.246094 15.449218-60.964844 40.988281-79.414062 3.355469-2.425782 4.113281-7.113282 1.6875-10.472656-2.425781-3.355469-7.117187-4.113282-10.472656-1.683594-18.765625 13.554687-32.726563 32.402344-40.425781 53.675781h-22.3125c-15.605469.003906-28.304688 12.699219-28.304688 28.308594v149.292969c0 15.609374 12.699219 28.308593 28.304688 28.308593h38.695312v17.046875c0 11.648438 9.480469 21.128906 21.128906 21.128906h70.742188c11.648437 0 21.128906-9.480468 21.128906-21.128906v-17.046875h100.332031c4.144531 0 7.5-3.359375 7.5-7.5 0-4.144531-3.355469-7.5-7.5-7.5h-252.027343c-7.335938 0-13.304688-5.972656-13.304688-13.308593v-149.292969c0-7.339844 5.96875-13.308594 13.304688-13.308594h17.984374c-14.597656 69.128906 37.636719 137.335937 111.300782 137.335937 72.644531 0 126.007812-67.617187 111.300781-137.335937h214.804687c7.335938 0 13.304688 5.96875 13.304688 13.308594v149.292969c0 7.335937-5.96875 13.308593-13.304688 13.308593h-175.363281c-4.140625 0-7.5 3.355469-7.5 7.5 0 4.140625 3.359375 7.5 7.5 7.5h23.667969v17.046875c0 11.648438 9.480469 21.128906 21.128906 21.128906h70.742188c11.648437 0 21.128906-9.480468 21.128906-21.128906v-17.046875h38.695312c15.605469 0 28.304688-12.699219 28.304688-28.308593v-149.292969c0-15.609375-12.695312-28.304688-28.304688-28.304688zm-318.695312 205.90625v17.046875c0 3.378906-2.75 6.128906-6.128906 6.128906h-70.742188c-3.378906 0-6.128906-2.75-6.128906-6.128906v-17.046875zm183.066406-205.90625c3.253906-11.160156 13.570313-19.335937 25.765625-19.335937h18.835938c12.191406 0 22.511719 8.175781 25.765625 19.335937zm81.933594 222.953125c0 3.378906-2.75 6.128906-6.128906 6.128906h-70.742188c-3.378906 0-6.128906-2.75-6.128906-6.128906v-17.046875h83zm0 0"/></svg>